<svg width="293" height="293" viewBox="0 0 293 293" fill="none" xmlns="http://www.w3.org/2000/svg">
    <circle cx="146.5" cy="146.5" r="144.5" fill="#4D2C65" stroke="#EDF2F7" stroke-width="4"/>
    <path d="M147.461 226.235C143.976 226.235 140.47 226.013 137.039 225.575L136.793 225.542C132.852 224.992 130.103 221.352 130.653 217.412C131.203 213.476 134.843 210.729 138.77 211.272C138.806 211.276 138.93 211.292 138.948 211.295C141.693 211.645 144.584 211.828 147.461 211.828C163.219 211.828 178.542 206.252 190.608 196.127C191.84 195.093 193.381 194.501 194.989 194.445C217.951 193.649 235.938 175.021 235.938 152.037C235.938 144.257 233.818 136.652 229.804 130.043C228.982 128.688 228.629 127.1 228.8 125.524C228.96 124.053 229.042 122.599 229.042 121.2C229.042 99.4508 211.349 81.7579 189.601 81.7579C185.977 81.7579 182.356 82.2618 178.84 83.2569C177.248 83.7059 175.546 83.5972 174.027 82.941C165.613 79.3137 156.675 77.4744 147.461 77.4744C118.176 77.4744 92.4778 96.1944 83.5118 124.057C82.7648 126.38 80.8936 128.165 78.5389 128.803C66.6093 132.034 58.2777 142.932 58.2777 155.301C58.2777 168.836 68.3565 180.514 81.7211 182.467C82.0038 182.508 82.2826 182.545 82.564 182.578C86.5162 183.037 89.3467 186.613 88.8863 190.565C88.4271 194.516 84.8522 197.352 80.8987 196.888C80.4766 196.839 80.0545 196.784 79.6363 196.721C59.2472 193.744 43.8706 175.936 43.8706 155.301C43.8706 137.764 54.8575 122.169 71.0258 116.104C82.894 84.2277 113.152 63.0674 147.461 63.0674C157.806 63.0674 167.869 64.9782 177.411 68.7527C181.416 67.8215 185.505 67.3508 189.601 67.3508C219.293 67.3508 243.449 91.5067 243.449 121.2C243.449 122.338 243.41 123.497 243.334 124.667C247.928 133.022 250.345 142.433 250.345 152.037C250.345 181.991 227.538 206.42 197.974 208.705C183.626 220.027 165.784 226.235 147.461 226.235Z" fill="#EE985D"/>
    <path d="M150.08 94.5873C122.867 94.5873 100.728 116.726 100.728 143.939V221.794C100.728 226.783 104.774 230.829 109.763 230.829C114.753 230.829 118.798 226.783 118.798 221.794V143.939C118.798 126.69 132.831 112.658 150.08 112.658C167.329 112.658 181.361 126.69 181.361 143.939C181.361 161.188 167.329 175.22 150.08 175.22C145.09 175.22 141.045 179.266 141.045 184.255C141.045 189.245 145.09 193.291 150.08 193.291C177.293 193.291 199.431 171.152 199.431 143.939C199.431 116.726 177.293 94.5873 150.08 94.5873Z" fill="white"/>
</svg>
